<svg xmlns="http://www.w3.org/2000/svg" viewBox="0 0 100 100">
  <path d="M50 12 C 64 30 76 46 76 62 C 76 78 64 86 50 86 C 36 86 24 78 24 62 C 24 46 36 30 50 12 Z" fill="#A7D7E8" stroke="#5B8FA8" stroke-width="3" stroke-linecap="round" stroke-linejoin="round"/>
  <circle cx="43" cy="60" r="2.2" fill="#4A3728" stroke-linecap="round" stroke-linejoin="round"/>
  <circle cx="57" cy="60" r="2.2" fill="#4A3728" stroke-linecap="round" stroke-linejoin="round"/>
  <path d="M45 68 Q 50 75 55 68" fill="none" stroke="#4A3728" stroke-width="2" stroke-linecap="round" stroke-linejoin="round"/>
  <path d="M32 20 L34 27 L41 28 L34 29 L32 36 L30 29 L23 28 L30 27 Z" fill="#FFE494" stroke="#5B8FA8" stroke-width="1.5" stroke-linecap="round" stroke-linejoin="round"/>
  <path d="M38 44 Q 34 42 36 37" fill="none" stroke="#FFFFFF" stroke-width="2.5" opacity="0.7" stroke-linecap="round" stroke-linejoin="round"/>
</svg>