<svg viewBox="0 0 100 100" xmlns="http://www.w3.org/2000/svg">
  <path d="M28 72 C26 74 24 76 26 78 C28 80 32 78 34 76 L38 72 L28 72 Z" fill="#6B4F4F" stroke="#6B4F4F" stroke-width="2.5" stroke-linecap="round" stroke-linejoin="round"/>
  <rect x="30" y="30" width="12" height="44" rx="4" fill="#6B4F4F" stroke="#6B4F4F" stroke-width="2.5" stroke-linecap="round" stroke-linejoin="round"/>
  <rect x="32" y="32" width="8" height="10" rx="2" fill="#C4785A" stroke="none"/>
  <path d="M34 30 L36 12 L38 12 L40 30" fill="#5B8FA8" stroke="#5B8FA8" stroke-width="2.5" stroke-linecap="round" stroke-linejoin="round"/>
  <path d="M35 12 L35 8 L41 8 L41 12" fill="#5B8FA8" stroke="#5B8FA8" stroke-width="2.5" stroke-linecap="round" stroke-linejoin="round"/>
  <line x1="38" y1="8" x2="38" y2="4" stroke="#5B8FA8" stroke-width="2" stroke-linecap="round"/>
  <circle cx="24" cy="86" r="1.5" fill="#FFE494" stroke="none"/>
  <path d="M88 24 L90 22" fill="none" stroke="#C9BAE5" stroke-width="1.5" stroke-linecap="round"/>
  <path d="M86 20 L90 20 L88 24" fill="none" stroke="#C9BAE5" stroke-width="1" stroke-linecap="round" stroke-linejoin="round"/>
</svg>